<svg width="1600" height="900" viewBox="0 0 1600 900" fill="none" xmlns="http://www.w3.org/2000/svg">
  <defs>
    <linearGradient id="bg2" x1="0" y1="0" x2="1600" y2="900" gradientUnits="userSpaceOnUse"><stop offset="0" stop-color="#07111E"/><stop offset="1" stop-color="#0A1731"/></linearGradient>
    <filter id="shadow2" x="-20%" y="-20%" width="140%" height="140%"><feDropShadow dx="0" dy="20" stdDeviation="26" flood-color="#000814" flood-opacity="0.44"/></filter>
    <marker id="arrow2" markerWidth="14" markerHeight="14" refX="12" refY="7" orient="auto"><path d="M0 0L14 7L0 14Z" fill="#8CEAFF"/></marker>
  </defs>
  <rect width="1600" height="900" rx="40" fill="url(#bg2)"/>
  <circle cx="800" cy="450" r="312" fill="rgba(15,27,48,0.92)" stroke="rgba(122,232,255,0.14)" stroke-width="2"/>
  <circle cx="800" cy="450" r="312" stroke="#8CEAFF" stroke-opacity="0.28" stroke-width="3" stroke-dasharray="12 14"><animateTransform attributeName="transform" attributeType="XML" type="rotate" from="0 800 450" to="360 800 450" dur="18s" repeatCount="indefinite"/></circle>

  <g filter="url(#shadow2)">
    <rect x="686" y="346" width="228" height="208" rx="30" fill="rgba(89,69,166,0.34)" stroke="#A493FF"/>
    <text x="716" y="430" fill="#FFFFFF" font-size="48" font-family="Inter, Arial, sans-serif" font-weight="900">Operator</text>
    <text x="730" y="474" fill="#BFB6FF" font-size="22" font-family="Inter, Arial, sans-serif">持续协调</text>
  </g>

  <g filter="url(#shadow2)">
    <rect x="684" y="96" width="232" height="92" rx="24" fill="rgba(8,61,86,0.5)" stroke="#7AE8FF"/>
    <text x="742" y="151" fill="#E6FAFF" font-size="30" font-family="Inter, Arial, sans-serif" font-weight="850">监听</text>
  </g>
  <g filter="url(#shadow2)">
    <rect x="1148" y="404" width="232" height="92" rx="24" fill="rgba(7,77,69,0.46)" stroke="#67E7B7"/>
    <text x="1206" y="459" fill="#E7FFF4" font-size="30" font-family="Inter, Arial, sans-serif" font-weight="850">改写</text>
  </g>
  <g filter="url(#shadow2)">
    <rect x="684" y="712" width="232" height="92" rx="24" fill="rgba(88,67,15,0.42)" stroke="#FFD874"/>
    <text x="742" y="767" fill="#FFF7D9" font-size="30" font-family="Inter, Arial, sans-serif" font-weight="850">生成</text>
  </g>
  <g filter="url(#shadow2)">
    <rect x="220" y="404" width="232" height="92" rx="24" fill="rgba(13,28,46,0.92)" stroke="#7AE8FF"/>
    <text x="278" y="459" fill="#E6FAFF" font-size="30" font-family="Inter, Arial, sans-serif" font-weight="850">校正</text>
  </g>

  <path d="M800 188C1026 188 1264 294 1264 450" stroke="#8CEAFF" stroke-width="7" stroke-linecap="round" marker-end="url(#arrow2)" opacity="0.42"/>
  <path d="M1264 450C1264 612 1044 758 800 758" stroke="#67E7B7" stroke-width="7" stroke-linecap="round" marker-end="url(#arrow2)" opacity="0.42"/>
  <path d="M800 758C568 758 336 616 336 450" stroke="#FFD874" stroke-width="7" stroke-linecap="round" marker-end="url(#arrow2)" opacity="0.42"/>
  <path d="M336 450C336 296 570 188 800 188" stroke="#A493FF" stroke-width="7" stroke-linecap="round" marker-end="url(#arrow2)" opacity="0.42"/>

  <circle r="10" fill="#8CEAFF"><animateMotion dur="4.4s" repeatCount="indefinite" path="M800 188C1026 188 1264 294 1264 450"/></circle>
  <circle r="10" fill="#67E7B7"><animateMotion dur="4.3s" repeatCount="indefinite" path="M1264 450C1264 612 1044 758 800 758"/></circle>
  <circle r="10" fill="#FFE38E"><animateMotion dur="4.6s" repeatCount="indefinite" path="M800 758C568 758 336 616 336 450"/></circle>
  <circle r="10" fill="#B8A9FF"><animateMotion dur="4.7s" repeatCount="indefinite" path="M336 450C336 296 570 188 800 188"/></circle>
</svg>
